<svg xmlns="http://www.w3.org/2000/svg" width="220" height="217" viewBox="0 0 220 217" fill="none"><path d="M129.468 5.76835C128.827 5.28875 128.667 3.84995 125.783 3.37035C122.738 2.89075 120.495 4.96902 120.014 8.32623C119.534 11.2038 121.296 13.7617 124.821 14.4012C126.744 14.7209 128.026 14.2413 128.827 13.7617L129.148 12.163L125.783 11.6834L126.103 7.84662L134.435 9.12556L133.314 16.4794C132.032 16.959 128.186 18.0781 123.86 17.4386C117.931 16.6393 113.765 13.1222 114.727 7.52689C115.688 1.29208 120.655 -0.626327 126.263 0.173008C131.07 0.812476 134.115 3.53022 134.756 6.72756L129.468 5.76835Z" fill="#C6C0BC"></path><path d="M161.515 11.6829L160.073 15.0401L148.857 10.2441L147.895 12.4822L157.028 16.4789L155.586 19.6762L146.453 15.6795L145.011 18.8769L156.227 23.6729L154.785 26.8702L139.243 20.1558L145.972 4.80859L161.515 11.6829Z" fill="#C6C0BC"></path><path d="M184.589 27.9909L182.345 30.8685L177.218 26.8718L169.206 37.1033L165.361 34.2257L173.372 23.9942L168.245 19.9975L170.488 17.1199L184.589 27.9909Z" fill="#C6C0BC"></path><path d="M196.926 59.1645L207.181 57.8856L211.026 64.4401L196.445 72.7532L194.042 68.5967L205.098 62.202L191.478 63.9605L190.036 61.4026L198.689 50.3718L187.472 56.7665L185.069 52.61L199.65 44.2969L203.496 50.8514L196.926 59.1645Z" fill="#C6C0BC"></path><path d="M218.718 91.4567L215.193 92.256L212.309 80.4259L209.905 81.0653L212.309 90.8172L208.783 91.6166L206.38 81.8647L202.855 82.664L205.739 94.4942L202.374 95.2935L198.368 78.8272L214.712 74.9904L218.718 91.4567Z" fill="#C6C0BC"></path><path d="M213.431 117.835L212.149 127.586L218.077 128.386L217.436 133.182L200.772 130.944L201.413 126.148L208.624 127.107L209.906 117.355L202.695 116.396L203.336 111.6L220 113.838L219.359 118.634L213.431 117.835Z" fill="#C6C0BC"></path><path d="M207.823 159.081L204.458 157.642L209.104 146.452L206.861 145.493L203.016 154.765L199.811 153.326L203.656 144.054L200.292 142.615L195.645 153.806L192.44 152.527L199.01 137.02L214.392 143.574L207.823 159.081Z" fill="#C6C0BC"></path><path d="M195.004 178.105C192.921 180.663 190.037 182.742 186.832 180.344C184.429 178.585 184.269 176.347 185.23 173.949L177.058 173.789L180.743 168.993L188.435 169.153L191.159 165.636L186.352 161.799L189.236 157.962L202.375 168.194L195.004 178.105ZM190.357 172.83C189.556 173.789 188.274 175.707 189.556 176.667C190.838 177.626 192.28 175.867 193.081 174.908L196.767 170.272L194.043 168.194L190.357 172.83Z" fill="#C6C0BC"></path><path d="M169.366 201.285L167.123 198.408L176.737 191.054L175.295 188.976L167.283 195.051L165.2 192.173L173.212 186.098L171.129 183.22L161.515 190.574L159.432 187.857L172.891 177.625L182.986 190.894L169.366 201.285Z" fill="#C6C0BC"></path><path d="M130.751 203.843C131.552 202.884 129.309 200.167 128.508 197.289C128.187 196.17 129.629 195.371 130.43 195.211C131.712 194.891 132.513 195.53 132.674 196.17C133.154 198.248 132.193 203.364 133.315 203.684C134.757 204.163 136.519 199.207 137.961 197.769C138.602 197.289 139.724 197.289 140.525 198.088C141.166 198.728 141.807 200.167 140.846 200.806C138.442 202.884 134.596 204.003 134.917 205.282C135.237 206.881 139.083 205.762 142.288 206.721C143.409 207.041 143.409 208.48 143.089 209.279C142.608 210.398 141.807 210.878 141.006 210.718C139.083 210.078 135.398 206.401 134.116 207.52C133.315 208.32 135.878 211.357 136.679 214.395C137 215.514 135.718 216.313 134.757 216.473C133.475 216.633 132.513 215.993 132.353 215.354C131.872 213.276 132.834 208.32 131.712 208C130.27 207.52 128.508 212.316 126.905 213.915C126.425 214.395 125.143 214.395 124.502 213.436C123.861 212.796 123.22 211.517 124.021 210.718C126.425 208.48 130.11 207.52 129.95 206.242C129.629 204.643 124.502 205.602 122.579 205.122C121.778 204.803 121.297 203.844 121.618 202.565C121.938 201.605 122.739 200.486 123.701 200.806C127.065 202.085 129.789 205.282 130.751 203.843Z" fill="#C6C0BC"></path><path d="M86.0453 210.877C86.6862 211.357 86.6862 212.956 89.5704 213.435C92.6148 214.075 94.8581 211.996 95.499 208.799C95.9797 205.921 94.3774 203.204 91.0125 202.564C89.0897 202.244 87.8079 202.564 87.0067 203.044L86.6862 204.642L90.0511 205.282L89.4102 208.799L81.2383 207.2L82.6804 199.846C83.9623 199.367 87.8079 198.408 92.1341 199.207C97.9025 200.326 101.908 204.003 100.947 209.598C99.8253 215.673 94.6979 217.592 89.0897 216.473C84.2827 215.513 81.3985 212.796 80.9178 209.598L86.0453 210.877Z" fill="#C6C0BC"></path><path d="M54.159 203.683L55.7614 200.486L66.6572 205.762L67.7789 203.523L58.8058 199.207L60.4081 196.01L69.3812 200.326L70.9835 197.129L60.0877 191.853L61.69 188.656L76.9122 196.01L69.5414 211.037L54.159 203.683Z" fill="#C6C0BC"></path><path d="M31.8859 186.418L34.2894 183.7L39.2566 188.016L47.749 178.105L51.4343 181.142L42.942 191.054L47.9092 195.37L45.5057 198.088L31.8859 186.418Z" fill="#C6C0BC"></path><path d="M20.83 154.764L10.5751 155.723L7.04994 149.009L21.9516 141.335L24.1949 145.651L12.8183 151.566L26.5984 150.287L28.0405 153.005L19.0674 163.716L30.6042 157.801L32.8475 162.118L17.6253 169.312L14.1002 162.597L20.83 154.764Z" fill="#C6C0BC"></path><path d="M0.481097 121.512L4.00623 120.873L6.24949 132.703L8.65299 132.223L6.73019 122.471L10.2553 121.832L12.1781 131.584L15.7032 130.944L13.46 119.114L16.8249 118.475L20.0295 135.101L3.52553 138.298L0.481097 121.512Z" fill="#C6C0BC"></path><path d="M6.72979 95.4529L8.49236 85.8609L2.56373 84.9017L3.3649 80.2656L19.8689 82.9833L19.0678 87.7793L11.8573 86.5004L10.0947 96.0924L17.3052 97.3713L16.504 102.007L0 99.1299L0.801166 94.4937L6.72979 95.4529Z" fill="#C6C0BC"></path><path d="M14.1001 54.5265L17.3047 56.1252L12.1773 66.9961L14.4205 68.1152L18.7468 59.0028L21.9515 60.4416L17.6252 69.554L20.8299 71.1527L25.9573 60.1219L29.162 61.5607L21.9515 76.9079L6.88958 69.7139L14.1001 54.5265Z" fill="#C6C0BC"></path><path d="M27.7199 35.9835C29.8029 33.4256 33.0076 31.5072 36.052 34.0651C38.2953 35.9835 38.4555 38.2216 37.3339 40.4598L45.5058 40.9394L41.6602 45.5755L33.969 45.0959L31.0848 48.4531L35.7315 52.4498L32.6871 56.1267L19.8684 45.2558L27.7199 35.9835ZM32.2064 41.5788C33.0076 40.6196 34.2894 38.8611 33.1678 37.742C31.8859 36.623 30.2836 38.3815 29.4824 39.3407L25.6368 43.817L28.3608 46.0551L32.2064 41.5788Z" fill="#C6C0BC"></path><path d="M54.3193 13.921L56.4023 16.7986L46.4678 23.6729L47.9099 25.7512L56.0818 19.996L58.1649 22.8736L49.8327 28.6288L51.9158 31.5064L61.8502 24.6321L63.773 27.5097L49.8327 37.1017L40.2188 23.3532L54.3193 13.921Z" fill="#C6C0BC"></path><path d="M88.7693 13.7612C87.9682 14.7204 90.2114 17.4382 91.0126 20.3158C91.3331 21.4348 89.891 22.2342 89.0898 22.394C87.8079 22.7138 87.0068 22.0743 86.8465 21.4348C86.3658 19.3566 87.3272 14.2408 86.0454 13.9211C84.6033 13.6013 82.8407 18.3974 81.3986 19.8362C80.7577 20.3158 79.636 20.3158 78.8349 19.5164C78.194 18.877 77.553 17.4382 78.3542 16.7987C80.7577 14.7204 84.6033 13.6013 84.2828 12.3224C83.9623 10.7237 80.1167 11.8428 76.9121 11.0435C75.7905 10.7237 75.7905 9.28494 76.1109 8.4856C76.5916 7.36653 77.3928 6.88693 78.194 7.0468C80.1168 7.68627 83.8021 11.3632 85.084 10.2441C85.8851 9.4448 83.3214 6.40733 82.5202 3.36986C82.1998 2.25079 83.4816 1.45145 84.443 1.29159C85.7249 1.13172 86.6863 1.77119 86.8465 2.41066C87.3272 4.48893 86.3658 9.4448 87.4875 9.76454C88.9296 10.2441 90.6921 5.44813 92.2945 3.84946C92.7752 3.36986 94.057 3.36986 94.698 4.16919C95.3389 4.80866 95.9798 6.0876 95.1787 6.88693C92.7752 9.12507 89.0898 10.0843 89.25 11.3632C89.5705 12.9619 94.698 12.0027 96.6208 12.4823C97.4219 12.6421 98.0629 13.6013 97.7424 14.8803C97.4219 15.8395 96.6208 16.9586 95.6594 16.6388C92.4547 15.5197 89.7307 12.3224 88.7693 13.7612Z" fill="#C6C0BC"></path></svg>