<svg xmlns="http://www.w3.org/2000/svg" width="292" height="119" viewBox="0 0 292 119" fill="none"><path d="M2.25705 67.842C3.27469 62.5277 7.96711 58.7964 14.6383 58.7964C22.327 58.7964 28.2632 62.0189 28.2632 72.4214V91.7564H21.6486L20.8006 87.5728C18.5392 90.3996 15.4863 92.2087 10.7939 92.2087C5.25342 92.2087 0.900208 88.76 0.900208 82.315C0.900208 75.87 6.61026 71.6864 14.7513 71.6864H20.1787V70.2165C20.1787 66.5982 17.465 65.411 14.4687 65.411C12.2072 65.411 9.8893 66.146 8.81513 69.1423L2.25705 67.842ZM12.7161 85.481C16.3343 85.481 20.1787 82.9934 20.1787 78.8098V78.188H14.8644C11.4158 78.0749 9.32395 79.4317 9.32395 82.2585C9.43702 83.8415 10.5677 85.481 12.7161 85.481Z" fill="#D5D1CF"></path><path d="M157.955 67.842C158.973 62.5277 163.665 58.7964 170.336 58.7964C178.025 58.7964 183.961 62.0189 183.961 72.4214V91.7564H177.403L176.555 87.5728C174.294 90.3996 171.241 92.2087 166.548 92.2087C161.008 92.2087 156.655 88.76 156.655 82.315C156.655 75.87 162.365 71.6864 170.506 71.6864H175.877V70.2165C175.877 66.5982 173.163 65.411 170.167 65.411C167.905 65.411 165.587 66.146 164.513 69.1423L157.955 67.842ZM168.414 85.481C172.032 85.481 175.877 82.9934 175.877 78.8098V78.188H170.562C167.114 78.188 165.022 79.4317 165.022 82.3716C165.135 83.8415 166.266 85.481 168.414 85.481Z" fill="#D5D1CF"></path><path d="M191.199 91.8695V59.3052H199.227V64.6195C201.488 60.7751 205.163 58.7964 208.781 58.7964C210.251 58.7964 211.382 58.966 212.682 59.4183L211.212 66.7679C210.307 66.146 209.233 65.8633 207.876 65.8633C203.241 65.8633 199.17 69.7077 199.17 80.2232V91.7564L191.199 91.8695Z" fill="#D5D1CF"></path><path d="M229.754 58.7959C233.09 58.7959 236.199 60.4355 237.669 62.2446V46.2451H245.697V91.869H237.669V88.5334C236.765 90.173 233.825 92.3778 229.754 92.3778C220.03 92.3778 214.998 85.6501 214.998 75.6434C214.998 65.6367 219.974 58.7959 229.754 58.7959ZM230.885 85.4805C235.068 85.4805 238.347 82.0319 238.347 75.5869C238.347 69.1419 235.012 65.6932 230.885 65.6932C226.701 65.6932 223.422 69.1419 223.422 75.5869C223.422 82.0319 226.758 85.4805 230.885 85.4805Z" fill="#D5D1CF"></path><path d="M274.586 63.9408L269.781 68.294C268.311 66.3153 266.162 65.4672 264.41 65.4672C262.883 65.4672 261.413 66.3718 261.413 68.1809C261.413 69.6508 262.601 70.6685 264.523 71.2904C268.989 72.9299 276.282 74.2867 276.282 81.2971C276.282 87.2333 271.816 92.0953 264.749 92.0953C258.021 92.0953 253.385 87.2898 251.859 83.3889L258.191 79.9402C259.378 83.0497 261.526 85.3111 264.749 85.3111C267.237 85.3111 268.82 84.1238 268.82 81.7494C268.82 79.0357 264.636 78.4138 260.735 76.7743C257.173 75.3043 254.177 73.0429 254.177 68.0678C254.177 63.0927 258.247 58.6265 264.579 58.6265C268.763 58.683 272.551 60.8313 274.586 63.9408Z" fill="#D5D1CF"></path><path d="M108.035 59.3052L102.325 81.6931L96.8409 59.3052H89.3217L83.9509 81.6931L79.3715 68.69L78.8627 70.2165L76.2621 78.5271L80.3892 91.8694H87.5126L93.1096 70.8384L98.7066 91.8694H105.773L116.176 59.3052H108.035Z" fill="#D5D1CF"></path><path d="M146.704 59.3052L140.881 81.6931L135.397 59.3052H127.878L122.507 81.6931L117.928 68.69L117.419 70.2165L114.819 78.5271L118.946 91.8694H126.069L131.666 70.8384L137.263 91.8694H144.33L154.732 59.3052H146.704Z" fill="#D5D1CF"></path><path d="M77.6175 59.3052L67.2151 91.7564H60.1482L54.4947 70.7818L48.8411 91.8694H41.7742L31.3718 59.4183H39.5128L45.336 81.6931L50.8764 59.4183H58.226L63.7664 81.6931L69.5896 59.4183L77.6175 59.3052Z" fill="#D5D1CF"></path><path d="M286.629 81.2974C289.739 81.2974 292 83.5588 292 86.6682C292 89.7776 289.739 92.039 286.629 92.039C283.52 92.039 281.258 89.7776 281.258 86.6682C281.202 83.6153 283.576 81.2974 286.629 81.2974Z" fill="#D5D1CF"></path><path d="M112.828 25.036C112.306 25.7782 111.866 26.5754 111.261 27.2077C108.65 29.9291 105.571 31.7709 101.75 32.1557C99.7984 32.3481 99.2486 32.0732 98.5889 30.2865C97.022 26.1631 97.3519 22.1497 99.2211 18.1913C99.3861 17.8339 99.6609 17.5315 100.073 16.9268C102.19 22.0122 101.613 26.7404 99.9083 31.5784C103.29 27.5925 107.303 24.9811 112.526 24.6787C112.608 24.8161 112.718 24.9261 112.828 25.036Z" fill="#D5D1CF"></path><path d="M184.437 34.1621C189.083 35.1792 194.361 40.9244 195.021 45.5701C191.117 45.735 184.3 38.5604 184.437 34.1621Z" fill="#D5D1CF"></path><path d="M96.6099 45.4607C98.5342 40.0453 101.723 35.8945 107.413 33.9702C107.413 39.0007 99.9636 46.1204 96.6099 45.4607Z" fill="#D5D1CF"></path><path d="M199.942 30.7808C201.756 35.1515 199.419 43.0134 196.066 45.3775C194.334 42.2162 196.588 33.4747 199.942 30.7808Z" fill="#D5D1CF"></path><path d="M91.8833 30.8086C95.0995 33.475 97.2161 41.3369 95.8417 45.2953C92.5705 43.756 89.8765 34.877 91.8833 30.8086Z" fill="#D5D1CF"></path><path d="M179.051 24.6782C184.522 25.0906 188.618 27.5646 191.696 31.8804C188.15 33.2273 180.206 28.6641 179.051 24.6782Z" fill="#D5D1CF"></path><path d="M192.245 31.7709C190.1 26.9053 189.578 22.1772 191.64 17.2017C194.471 19.6207 195.186 28.4172 192.245 31.7709Z" fill="#D5D1CF"></path><path d="M116.486 13.5736C119.317 10.8522 127.866 10.5498 130.808 13.1338C128.334 15.5254 118.822 15.8003 116.486 13.5736Z" fill="#D5D1CF"></path><path d="M108.842 21.49C111.262 18.1913 119.728 16.0197 123.219 18.3563C118.876 21.3526 114.23 22.5621 108.842 21.49Z" fill="#D5D1CF"></path><path d="M182.762 21.2976C178.941 22.8095 171.437 21.1602 168.743 18.2738C171.492 16.1572 180.206 17.9165 182.762 21.2976Z" fill="#D5D1CF"></path><path d="M175.477 13.7927C170.419 15.7444 165.663 15.552 160.825 13.3253C163.546 10.6039 172.645 10.7963 175.477 13.7927Z" fill="#D5D1CF"></path><path d="M122.395 0.350586C122.698 4.41897 119.591 10.4116 115.99 12.8306C114.396 10.3016 118.574 1.39517 122.395 0.350586Z" fill="#D5D1CF"></path><path d="M175.807 12.9952C171.794 9.64155 169.677 5.4907 169.127 0.322754C173.031 1.39483 176.769 8.48701 175.807 12.9952Z" fill="#D5D1CF"></path><path d="M108.294 20.5831C105.93 17.5868 107.112 9.61499 109.861 7.16846C111.757 10.1923 110.878 17.8617 108.294 20.5831Z" fill="#D5D1CF"></path><path d="M183.586 20.6106C181.305 19.0163 179.82 9.77992 181.882 7.16846C184.713 9.42256 185.703 17.4219 183.586 20.6106Z" fill="#D5D1CF"></path><path d="M134.105 0.0758983C133.335 3.70446 128.855 7.25055 124.924 7.30553C124.896 3.8419 130.944 -0.638818 134.105 0.0758983Z" fill="#D5D1CF"></path><path d="M166.927 7.19581C164.014 7.66312 158.131 3.84214 157.664 0.048643C161.457 -0.281226 165.965 3.1824 166.927 7.19581Z" fill="#D5D1CF"></path><path d="M103.648 45.3228C103.648 46.7522 103.648 47.9617 103.648 49.1712C102.274 49.1712 101.064 49.1712 99.7174 49.1712C100.707 47.4669 101.972 46.2849 103.648 45.3228Z" fill="#D5D1CF"></path><path d="M192.134 49.1719C190.678 49.1719 189.496 49.1719 188.149 49.1719C188.149 47.8799 188.149 46.6978 188.149 45.2959C189.77 46.258 191.007 47.44 192.134 49.1719Z" fill="#D5D1CF"></path><path d="M88.0066 45.8174C89.2436 46.9719 90.2332 47.9066 91.2503 48.8412C91.1953 48.9511 91.1403 49.0336 91.1129 49.1436C90.1233 49.1436 89.1611 49.1436 88.0066 49.1436C88.0066 48.1814 88.0066 47.2468 88.0066 45.8174Z" fill="#D5D1CF"></path><path d="M203.791 46.1479C203.791 47.1925 203.791 48.1272 203.791 49.1443C202.746 49.1443 201.811 49.1443 200.849 49.1443C200.959 48.2096 202.114 46.9726 203.791 46.1479Z" fill="#D5D1CF"></path><path d="M69.0582 102.374H70.9372V111.675H69.0582V107.691H65.0603V111.675H63.1813V102.374H65.0603V106.252H69.0582V102.374ZM80.5643 109.223C81.0884 108.664 81.3505 107.922 81.3505 106.998C81.3505 106.074 81.0884 105.336 80.5643 104.786C80.0401 104.235 79.356 103.959 78.512 103.959C77.6681 103.959 76.9795 104.239 76.4465 104.799C75.9223 105.35 75.6602 106.087 75.6602 107.011C75.6602 107.926 75.9223 108.664 76.4465 109.223C76.9795 109.774 77.6681 110.05 78.512 110.05C79.356 110.05 80.0401 109.774 80.5643 109.223ZM78.512 111.769C77.1705 111.769 76.0423 111.32 75.1272 110.423C74.2121 109.525 73.7546 108.388 73.7546 107.011C73.7546 105.625 74.2121 104.484 75.1272 103.586C76.0511 102.689 77.1794 102.24 78.512 102.24C79.8535 102.24 80.9818 102.689 81.8969 103.586C82.8119 104.484 83.2695 105.625 83.2695 107.011C83.2695 108.388 82.8119 109.525 81.8969 110.423C80.9818 111.32 79.8535 111.769 78.512 111.769ZM92.1731 102.347H94.0521V111.675H92.1731L87.9621 105.225V111.675H86.0831V102.347H87.9621L92.1731 108.797V102.347ZM103.674 109.223C104.198 108.664 104.46 107.922 104.46 106.998C104.46 106.074 104.198 105.336 103.674 104.786C103.15 104.235 102.466 103.959 101.622 103.959C100.778 103.959 100.089 104.239 99.5564 104.799C99.0323 105.35 98.7702 106.087 98.7702 107.011C98.7702 107.926 99.0323 108.664 99.5564 109.223C100.089 109.774 100.778 110.05 101.622 110.05C102.466 110.05 103.15 109.774 103.674 109.223ZM101.622 111.769C100.28 111.769 99.1522 111.32 98.2371 110.423C97.3221 109.525 96.8645 108.388 96.8645 107.011C96.8645 105.625 97.3221 104.484 98.2371 103.586C99.1611 102.689 100.289 102.24 101.622 102.24C102.963 102.24 104.092 102.689 105.007 103.586C105.922 104.484 106.379 105.625 106.379 107.011C106.379 108.388 105.922 109.525 105.007 110.423C104.092 111.32 102.963 111.769 101.622 111.769ZM111.072 107.971V111.675H109.193V102.374H112.618C113.693 102.374 114.519 102.645 115.096 103.187C115.683 103.72 115.976 104.381 115.976 105.172C115.976 105.758 115.798 106.305 115.443 106.811C115.088 107.318 114.528 107.664 113.764 107.851L116.136 111.675H113.91L111.685 107.971H111.072ZM111.072 103.813V106.531H112.618C113.089 106.531 113.448 106.411 113.697 106.172C113.946 105.923 114.07 105.59 114.07 105.172C114.07 104.755 113.946 104.426 113.697 104.186C113.448 103.937 113.089 103.813 112.618 103.813H111.072ZM125.283 111.675L124.684 109.93H121.059L120.459 111.675H118.474L121.765 102.347H123.991L127.269 111.675H125.283ZM121.552 108.49H124.204L122.871 104.612L121.552 108.49ZM129.908 102.374H133.68C134.63 102.374 135.377 102.605 135.919 103.067C136.469 103.529 136.745 104.115 136.745 104.826C136.745 105.865 136.141 106.562 134.932 106.918C135.545 107.007 136.034 107.273 136.398 107.717C136.771 108.153 136.958 108.659 136.958 109.237C136.958 109.965 136.683 110.556 136.132 111.009C135.581 111.453 134.835 111.675 133.893 111.675H129.908V102.374ZM131.787 103.813V106.225H133.48C133.897 106.225 134.226 106.123 134.466 105.918C134.715 105.705 134.839 105.408 134.839 105.026C134.839 104.644 134.715 104.346 134.466 104.133C134.226 103.919 133.897 103.813 133.48 103.813H131.787ZM131.787 110.236H133.68C134.097 110.236 134.43 110.125 134.679 109.903C134.937 109.672 135.066 109.357 135.066 108.957C135.066 108.557 134.937 108.242 134.679 108.011C134.422 107.78 134.084 107.664 133.666 107.664H131.787V110.236ZM139.908 102.374H141.787V110.249H144.772V111.675H139.908V102.374ZM152.741 102.347V103.786H149.249V106.225H152.341V107.664H149.249V110.236H152.741V111.675H147.37V102.347H152.741ZM171.46 102.374V111.675H169.594V105.798L167.062 111.675H165.716L163.198 105.825V111.675H161.319V102.374H163.411L166.396 109.263L169.381 102.374H171.46ZM180.164 102.347V103.786H176.672V106.225H179.764V107.664H176.672V110.236H180.164V111.675H174.793V102.347H180.164ZM189.503 102.347H191.382V111.675H189.503L185.292 105.225V111.675H183.413V102.347H185.292L189.503 108.797V102.347ZM194.168 103.813V102.374H201.058V103.813H198.539V111.675H196.674V103.813H194.168ZM203.83 111.675V102.374H205.709V111.675H203.83ZM215.33 109.223C215.854 108.664 216.116 107.922 216.116 106.998C216.116 106.074 215.854 105.336 215.33 104.786C214.806 104.235 214.122 103.959 213.278 103.959C212.434 103.959 211.745 104.239 211.212 104.799C210.688 105.35 210.426 106.087 210.426 107.011C210.426 107.926 210.688 108.664 211.212 109.223C211.745 109.774 212.434 110.05 213.278 110.05C214.122 110.05 214.806 109.774 215.33 109.223ZM213.278 111.769C211.936 111.769 210.808 111.32 209.893 110.423C208.978 109.525 208.521 108.388 208.521 107.011C208.521 105.625 208.978 104.484 209.893 103.586C210.817 102.689 211.945 102.24 213.278 102.24C214.619 102.24 215.748 102.689 216.663 103.586C217.578 104.484 218.035 105.625 218.035 107.011C218.035 108.388 217.578 109.525 216.663 110.423C215.748 111.32 214.619 111.769 213.278 111.769ZM226.939 102.347H228.818V111.675H226.939L222.728 105.225V111.675H220.849V102.347H222.728L226.939 108.797V102.347Z" fill="#D5D1CF"></path></svg>